# xmcd
#
# Track frame offsets: 
#        750
#        22865
#        44137
#        64487
#        92562
#        114187
#        134232
#        156645
#        178190
#        198865
#        223702
#        243925
#        265230
#
# Disc length: 3810 seconds
#
# Revision: 11
# Processed by: cddbd v1.5.2PL0 Copyright (c) Steve Scherf et al.
# Submitted via: ExactAudioCopy v0.99pb4
#
DISCID=c30ed80d
DTITLE=Justin Timberlake - Justified
DYEAR=2002
DGENRE=Pop
TTITLE0=Senorita
TTITLE1=Like I Love You (featuring Clipse)
TTITLE2=(Uh Oh) What You Got
TTITLE3=Take It From Here
TTITLE4=Cry Me A River
TTITLE5=Rock Your Body
TTITLE6=Nothin' Else
TTITLE7=Last Night
TTITLE8=Still On My Brain
TTITLE9=(And She Said) Take Me Now (featuring Janet Jackson)
TTITLE10=Right For Me
TTITLE11=Let's Take A Ride
TTITLE12=Never Again
EXTD=
EXTT0=
EXTT1=
EXTT2=
EXTT3=
EXTT4=
EXTT5=
EXTT6=
EXTT7=
EXTT8=
EXTT9=
EXTT10=
EXTT11=
EXTT12=
PLAYORDER=
